<?xml version="1.0" standalone="no"?>
<!DOCTYPE svg PUBLIC "-//W3C//DTD SVG 20010904//EN"
 "http://www.w3.org/TR/2001/REC-SVG-20010904/DTD/svg10.dtd">
<svg version="1.0" xmlns="http://www.w3.org/2000/svg"
 width="92.000000pt" height="83.000000pt" viewBox="0 0 92.000000 83.000000"
 preserveAspectRatio="xMidYMid meet">

<g transform="translate(0.000000,83.000000) scale(0.100000,-0.100000)"
fill="#000000" stroke="none">
<path d="M146 769 c-59 -47 -72 -135 -27 -183 29 -31 27 -36 -19 -36 -63 0
-75 -45 -20 -73 45 -23 43 -89 -3 -106 -29 -11 -42 -39 -26 -57 9 -10 5 -21
-15 -45 -63 -75 -42 -179 46 -225 37 -19 807 -21 826 -2 23 23 14 58 -18 70
-52 18 -55 90 -5 118 23 13 30 24 30 46 0 26 -3 29 -37 32 -44 4 -46 8 -17 38
28 30 35 92 15 131 -19 37 -62 73 -87 73 -11 0 -19 9 -21 22 -2 13 -15 29 -30
36 -48 23 -49 96 -2 108 25 6 42 43 29 63 -4 7 -104 11 -299 11 -282 0 -294
-1 -320 -21z m597 -14 c-2 -6 -88 -11 -225 -13 -128 -1 -227 -7 -232 -12 -7
-7 61 -10 195 -10 l204 0 0 -55 0 -55 -236 0 c-218 0 -239 2 -260 19 -20 16
-22 23 -14 47 7 19 20 31 43 38 42 12 42 31 0 22 -45 -9 -68 -33 -68 -72 0
-23 7 -38 26 -53 26 -20 39 -21 295 -21 261 0 308 -5 268 -31 -20 -13 -512
-11 -546 2 -68 26 -98 90 -69 147 32 63 33 63 341 60 180 -2 279 -7 278 -13z
m75 -241 c34 -24 55 -71 48 -110 -7 -34 -55 -84 -82 -84 -24 0 -16 25 16 48
37 28 41 79 9 108 -20 18 -43 19 -380 22 -307 2 -359 5 -359 17 0 23 715 22
748 -1z m-44 -44 c30 -11 44 -53 26 -75 -17 -20 -27 -19 -33 5 -5 19 -14 20
-146 20 -87 0 -141 -4 -141 -10 0 -5 23 -10 50 -10 38 0 50 -4 50 -15 0 -13
-31 -15 -223 -15 l-223 0 0 55 0 55 307 0 c174 0 319 -4 333 -10z m-26 -172
c1 -54 0 -98 -3 -98 -3 0 -20 7 -37 16 -29 15 -34 15 -65 0 -18 -9 -35 -16
-36 -16 -1 0 -1 45 1 100 l3 101 67 -3 67 -3 3 -97z m-168 32 c0 -20 -5 -20
-252 -18 -232 3 -253 4 -256 21 -3 16 14 17 252 17 250 0 256 0 256 -20z m0
-60 c0 -19 -7 -20 -235 -20 l-236 0 -24 -25 c-33 -33 -32 -70 4 -106 l29 -29
261 0 c162 0 262 4 266 10 4 7 -80 10 -244 10 -137 0 -261 4 -275 10 -47 18
-54 74 -12 102 6 4 113 8 239 8 l227 0 0 -30 c0 -36 16 -38 61 -11 32 20 33
20 70 0 51 -26 59 -24 59 11 0 28 3 30 36 30 32 0 35 -2 28 -23 -10 -28 -10
-46 0 -74 7 -23 6 -23 -74 -23 -52 0 -79 -4 -75 -10 3 -6 52 -10 111 -10 95 0
105 -2 102 -17 -3 -17 -31 -18 -388 -21 -262 -1 -393 1 -412 9 -69 28 -98 110
-59 172 11 18 31 39 43 45 15 7 111 11 261 11 231 1 237 0 237 -19z m318 3
c-3 -15 -16 -19 -66 -21 -57 -3 -62 -1 -62 18 0 18 6 20 66 20 57 0 65 -2 62
-17z"/>
</g>
</svg>
